<?xml version="1.0" encoding="UTF-8"?><svg xmlns="http://www.w3.org/2000/svg" viewBox="0 0 44.47 44.47"><defs><style>.cls-1{fill-rule:evenodd;}.cls-1,.cls-2{fill:#fff;}.cls-3{fill:#e51313;}</style></defs><g id="Layer_2"><circle class="cls-3" cx="22.24" cy="22.24" r="22.24"/></g><g id="Layer_1"><path class="cls-1" d="M17.88,25.02s-.49-.48-.82-.39c-3.58.88-7.2,2.67-7.2,5.36v4.54h23.81v-4.54c0-2.69-3.62-4.49-7.2-5.36-.33-.08-.82.4-.82.4,0,0-3.74,2.23-4.19,2.23,0,0-3.59-2.23-3.59-2.23ZM26.17,25.89l-.52-.86.52.86ZM26.17,25.89l.02.03-.02-.03ZM26.19,25.92l.14.24h0s0,0,0,0l-.03.02-.12.07c-.59.35-1.19.7-1.79,1.03-.5.28-1.03.57-1.47.79-.22.11-.43.21-.62.29-.09.04-.2.08-.3.11-.07.02-.28.09-.52.09-.16-.01-.31-.04-.46-.08-.06-.02-.11-.05-.16-.07l-.04-.02-.03-.02c-.05-.03-.11-.07-.16-.1l-.41-.25-1.23-.77-1.23-.77-.41-.25-.11-.07-.03-.02h0s0,0,0,0h0s.14-.22.14-.22l-.14.22-.12-.07-.06-.06c-1.57.42-3.06,1-4.15,1.72-1.21.8-1.66,1.57-1.66,2.26v3.21h21.17v-3.21c0-.69-.46-1.46-1.66-2.26-1.09-.72-2.58-1.31-4.15-1.72l-.07.07-.13.08-.14-.24ZM17.32,25.92l.04-.06-.04.06ZM17.36,25.86l.52-.84-.52.84Z"/><path class="cls-2" d="M13.83,30.56c0-.37.3-.66.66-.66h3.31c.37,0,.66.3.66.66s-.3.66-.66.66h-3.31c-.37,0-.66-.3-.66-.66Z"/><path class="cls-2" d="M27.59,28.01c.04-.13.22-.13.26,0l.37,1.21c.02.06.07.1.13.1h1.21c.13,0,.19.18.08.26l-.98.75s-.07.1-.05.16l.37,1.21c.04.13-.1.24-.21.16l-.98-.75s-.11-.04-.16,0l-.98.75c-.11.08-.25-.03-.21-.16l.37-1.21c.02-.06,0-.12-.05-.16l-.98-.75c-.11-.08-.05-.26.08-.26h1.21c.06,0,.11-.04.13-.1l.37-1.21Z"/><path class="cls-1" d="M27.88,28.1l-.03-.09c-.02-.07-.1-.11-.17-.09-.04.01-.08.05-.09.09l-.37,1.21c-.02.06-.07.1-.13.1h-1.21c-.13,0-.19.18-.08.26l.98.75s.07.1.05.16l-.37,1.21c-.04.13.1.24.21.16l.98-.75s.11-.04.16,0l.98.75c.11.08.25-.03.21-.16l-.37-1.21c-.02-.06,0-.12.05-.16l.98-.75c.11-.08.05-.26-.08-.26h-1.21c-.06,0-.11-.04-.13-.1l-.35-1.12ZM15.81,16.67v-1.32h1.32v1.32c0,2.56,2.07,4.63,4.63,4.63s4.63-2.07,4.63-4.63v-1.32h1.32v1.32c0,3.29-2.67,5.95-5.95,5.95s-5.95-2.67-5.95-5.95Z"/><path class="cls-1" d="M21.87,7.42l-.1.65-.1-.65.1-.02.1.02ZM28.38,14.22l.05-.08c.63-.99,1.05-2.1,1.26-3.25.09-.5-.17-.89-.43-1.14-.26-.25-.6-.46-.96-.63-.73-.35-1.7-.66-2.63-.9-.86-.22-1.73-.42-2.61-.59-.37-.07-.74-.14-1.11-.2h-.06s-.02-.01-.02-.01h0s-.1.65-.1.65l-.1-.65h0s-.02,0-.02,0h-.07s-.24.05-.24.05c-.21.04-.5.09-.86.16-.71.14-1.65.34-2.6.58-.93.25-1.9.55-2.63.9-.36.18-.71.38-.97.63-.25.25-.52.63-.44,1.12.15,1.05.52,1.93.83,2.55.14.28.3.54.48.8,0,.1.02.22.05.35.08.37.28.81.72,1.24.87.84,2.57,1.51,5.85,1.51s4.98-.67,5.85-1.51c.44-.43.64-.88.72-1.24.03-.12.04-.24.05-.36ZM26.86,14.68h-10.19c.04.06.1.12.16.19.5.48,1.77,1.14,4.93,1.14s4.43-.65,4.93-1.14c.07-.06.12-.13.16-.19ZM16.16,13.36h11.21c.49-.8.84-1.69,1.01-2.62-.01-.01-.02-.03-.04-.04-.11-.1-.3-.24-.61-.39-.61-.3-1.48-.58-2.39-.82-.83-.22-1.67-.41-2.52-.57-.35-.07-.7-.13-1.05-.19-.35.06-.7.12-1.04.19-.84.16-1.68.35-2.51.57-.91.24-1.78.52-2.39.82-.31.15-.51.29-.62.39-.02.02-.03.03-.04.05.13.84.42,1.56.69,2.07.12.23.23.41.31.54h0ZM15.13,10.78s0,0,0,0c0,0,0,0,0,0ZM28.4,10.77h0s0,0,0,0Z"/><path class="cls-2" d="M23.42,10.28s-1.21-.44-1.65-.88c-.44.44-1.65.88-1.65.88,0,0,.33,2.43,1.65,2.43s1.65-2.43,1.65-2.43Z"/></g></svg>